<svg version="1.2" xmlns="http://www.w3.org/2000/svg" viewBox="0 0 1618 139" width="1618" height="139">
	<title>658da97d18dfa9bfbfb35ea7_logo-footer-svg</title>
	<style>
		tspan { white-space:pre } 
		.s0 { fill: #ffffff } 
	</style>
	<path id="NOCH" fill-rule="evenodd" class="s0" d="m1134.4 134h-24.8v-129.6h24.8l56.4 86.4v-86.4h24.8v129.6h-24.8l-56.4-86.4zm162 2.7q-19.4 0-33.5-8.5-14.1-8.4-21.7-23.6-7.6-15.2-7.6-35.4 0-20.2 7.6-35.4 7.6-15.2 21.7-23.6 14.1-8.5 33.5-8.5 19.5 0 33.5 8.5 14.1 8.4 21.7 23.6 7.7 15.2 7.7 35.4 0 20.2-7.7 35.4-7.6 15.2-21.7 23.6-14 8.5-33.5 8.5zm0-23q12.4 0.1 20.6-5.3 8.1-5.5 12.2-15.6 4.1-10.1 4.1-23.6 0-13.5-4.1-23.4-4.1-9.9-12.2-15.4-8.2-5.5-20.6-5.7-12.3-0.1-20.5 5.4-8.2 5.4-12.3 15.5-4.1 10.1-4.1 23.6 0 13.5 4.1 23.4 4.1 9.9 12.3 15.4 8.2 5.5 20.5 5.7zm136.5 23q-19.5 0-33.6-8.5-14-8.4-21.7-23.6-7.5-15.2-7.5-35.4 0-20.2 7.5-35.4 7.7-15.2 21.7-23.6 14.1-8.5 33.6-8.5 22.3 0 37.4 11.1 15.2 11 21.4 29.9l-24.6 6.9q-3.6-11.8-12.2-18.3-8.5-6.6-22-6.6-12.3 0-20.6 5.5-8.2 5.5-12.4 15.5-4.1 10-4.1 23.5 0 13.5 4.1 23.5 4.2 10 12.4 15.5 8.3 5.5 20.6 5.5 13.5 0 22-6.6 8.6-6.6 12.2-18.3l24.6 6.9q-6.2 18.9-21.4 29.9-15.1 11.1-37.4 11.1zm103.1-2.7h-24.5v-129.6h24.5v53.3h58v-53.3h24.5v129.6h-24.5v-53.5h-58z"/>
	<path id="STUDIO" fill-rule="evenodd" class="s0" d="m55.6 136.7q-14.4 0-26.1-5-11.5-5.2-18.9-14.6-7.4-9.6-9.4-22.7l25.6-3.8q2.7 11.2 11.1 17.2 8.5 6 19.3 6 6 0 11.7-1.8 5.7-1.9 9.2-5.6 3.7-3.7 3.7-9.1 0-2-0.6-3.8-0.5-1.9-1.9-3.5-1.3-1.6-3.8-3.1-2.5-1.4-6.3-2.6l-33.6-9.9q-3.8-1.1-8.8-3-5-2-9.7-5.7-4.7-3.7-7.8-9.7-3.1-6.1-3.1-15.4 0-13.1 6.6-21.7 6.6-8.6 17.6-12.9 10.9-4.2 24.3-4.1 13.4 0.2 23.9 4.6 10.5 4.4 17.6 12.8 7.1 8.4 10.3 20.6l-26.5 4.5q-1.4-6.3-5.3-10.7-3.8-4.3-9.2-6.5-5.4-2.3-11.2-2.5-5.8-0.1-10.9 1.7-5 1.7-8.3 5-3.1 3.3-3.1 7.9 0 4.3 2.6 7 2.6 2.6 6.6 4.2 3.9 1.6 8.1 2.7l22.5 6.1q5 1.4 11.1 3.6 6.1 2.2 11.7 6.1 5.7 3.9 9.3 10.3 3.7 6.4 3.7 16.2 0 10.4-4.4 18.3-4.4 7.7-11.7 12.8-7.4 5.1-16.8 7.6-9.2 2.5-19.1 2.5zm126.3-2.7h-24.5v-106.7h-40.8v-22.9h106.2v22.9h-40.9zm108 2.7q-15.6 0-27.5-6.3-11.9-6.4-18.6-17.9-6.6-11.6-6.6-27.1v-80.9l24.8-0.1v80.8q0 6.4 2.2 11.6 2.1 5.2 5.9 9 3.9 3.8 8.9 5.8 5.2 2 10.9 2 6 0 11-2 5.1-2.1 8.9-5.9 3.8-3.8 5.9-9 2.1-5.2 2.1-11.5v-80.8h24.9v81q0 15.5-6.7 27.1-6.7 11.5-18.5 17.9-11.9 6.3-27.6 6.3zm119.9-2.7h-41.9v-129.6h41.9q1.5 0 6.3 0.1 4.8 0 9.2 0.6 15.6 1.9 26.5 10.9 10.9 9 16.6 22.8 5.7 13.9 5.7 30.4 0 16.4-5.7 30.3-5.7 13.9-16.6 22.9-10.9 9-26.5 10.8-4.4 0.6-9.2 0.7-4.8 0.1-6.3 0.1zm-17.1-106.6v83.5h17.1q2.4 0 6.6-0.1 4.1-0.1 7.4-0.8 8.5-1.7 13.8-7.9 5.4-6.2 7.9-14.9 2.6-8.8 2.6-18 0-9.8-2.7-18.5-2.6-8.7-8-14.7-5.4-6.1-13.6-7.7-3.3-0.7-7.4-0.8-4.2-0.1-6.6-0.1zm129.2 106.6h-24.4v-129.6h24.4zm82.7 2.7q-19.5 0-33.6-8.5-14-8.5-21.7-23.7-7.6-15.2-7.6-35.3 0-20.2 7.6-35.4 7.7-15.2 21.7-23.7 14.1-8.4 33.6-8.4 19.4 0 33.4 8.4 14.2 8.5 21.7 23.7 7.7 15.2 7.7 35.4 0 20.1-7.7 35.3-7.5 15.2-21.7 23.7-14 8.5-33.4 8.5zm0-23.1q12.3 0.2 20.5-5.3 8.2-5.5 12.2-15.6 4.2-10 4.2-23.5 0-13.5-4.2-23.4-4-9.9-12.2-15.4-8.2-5.5-20.5-5.7-12.4-0.2-20.6 5.3-8.1 5.5-12.3 15.6-4 10.1-4 23.6 0 13.5 4 23.4 4.2 9.9 12.3 15.4 8.2 5.4 20.6 5.6z"/>
</svg>